Coordinates
version=1
nRows=31
nColumns=24
inDegrees=yes

Units are S.I. units (second, meters, Newtons, ...)
Angles are in degrees.

endheader
time	pelvis_tilt	pelvis_list	pelvis_rotation	pelvis_tx	pelvis_ty	pelvis_tz	hip_flexion_r	hip_adduction_r	hip_rotation_r	knee_angle_r	ankle_angle_r	subtalar_angle_r	mtp_angle_r	hip_flexion_l	hip_adduction_l	hip_rotation_l	knee_angle_l	ankle_angle_l	subtalar_angle_l	mtp_angle_l	lumbar_extension	lumbar_bending	lumbar_rotation
9.64000000	4.84455933	-1.84559258	-0.77772078	0.60102028	1.04559875	-0.02160049	25.58930208	-2.90617367	-6.95037445	-20.60935788	8.19331396	-0.00000082	0.00000000	-6.31317597	1.38076320	0.20135362	-27.86305357	16.64568600	0.00000249	0.00000000	-19.54310531	-0.47001089	-4.72635202
9.65000000	4.84455933	-1.84559258	-0.77772078	0.60102028	1.04559875	-0.02160049	25.20275506	-2.90617367	-6.95037445	-21.77466062	7.94184945	-0.00000082	0.00000000	-6.06651289	1.38076320	0.20135362	-30.01733438	14.63837593	0.00000249	0.00000000	-19.54310531	-0.47001089	-4.72635202
9.66000000	4.84455933	-1.84559258	-0.77772078	0.60102028	1.04559875	-0.02160049	24.73420840	-2.90617367	-6.95037445	-22.80185187	7.87769924	-0.00000082	0.00000000	-5.66311843	1.38076320	0.20135362	-32.35778110	12.03926982	0.00000249	0.00000000	-19.54310531	-0.47001089	-4.72635202
9.67000000	4.84455933	-1.84559258	-0.77772078	0.60102028	1.04559875	-0.02160049	24.18605797	-2.90617367	-6.95037445	-23.66624740	8.00199088	-0.00000082	0.00000000	-5.08864217	1.38076320	0.20135362	-34.86919904	8.88697350	0.00000249	0.00000000	-19.54310531	-0.47001089	-4.72635202
9.68000000	4.84455933	-1.84559258	-0.77772078	0.60102028	1.04559875	-0.02160049	23.56391871	-2.90617367	-6.95037445	-24.35262638	8.30044149	-0.00000082	0.00000000	-4.33285927	1.38076320	0.20135362	-37.53299155	5.26909800	0.00000249	0.00000000	-19.54310531	-0.47001089	-4.72635202
9.69000000	4.84455933	-1.84559258	-0.77772078	0.60102028	1.04559875	-0.02160049	22.87601088	-2.90617367	-6.95037445	-24.85512984	8.74580707	-0.00000082	0.00000000	-3.39144068	1.38076320	0.20135362	-40.32674570	1.31951888	0.00000249	0.00000000	-19.54310531	-0.47001089	-4.72635202
9.70000000	4.84455933	-1.84559258	-0.77772078	0.60102028	1.04559875	-0.02160049	22.13228993	-2.90617367	-6.95037445	-25.17664696	9.30165023	-0.00000082	0.00000000	-2.26735904	1.38076320	0.20135362	-43.22366177	-2.78975849	0.00000249	0.00000000	-19.54310531	-0.47001089	-4.72635202
9.71000000	4.84455933	-1.84559258	-0.77772078	0.60102028	1.04559875	-0.02160049	21.34346179	-2.90617367	-6.95037445	-25.32773321	9.92680094	-0.00000082	0.00000000	-0.97168447	1.38076320	0.20135362	-46.19199692	-6.86161023	0.00000249	0.00000000	-19.54310531	-0.47001089	-4.72635202
9.72000000	4.84455933	-1.84559258	-0.77772078	0.60102028	1.04559875	-0.02160049	20.52004042	-2.90617367	-6.95037445	-25.32515630	10.57987457	-0.00000082	0.00000000	0.47640204	1.38076320	0.20135362	-49.19473256	-10.69042937	0.00000249	0.00000000	-19.54310531	-0.47001089	-4.72635202
9.73000000	4.84455933	-1.84559258	-0.77772078	0.60102028	1.04559875	-0.02160049	19.67158762	-2.90617367	-6.95037445	-25.19020356	11.22329547	-0.00000082	0.00000000	2.05045120	1.38076320	0.20135362	-52.18968725	-14.08051865	0.00000249	0.00000000	-19.54310531	-0.47001089	-4.72635202
9.74000000	4.84455933	-1.84559258	-0.77772078	0.60102028	1.04559875	-0.02160049	18.80623222	-2.90617367	-6.95037445	-24.94689909	11.82641691	-0.00000082	0.00000000	3.71840595	1.38076320	0.20135362	-55.13026607	-16.86400794	0.00000249	0.00000000	-19.54310531	-0.47001089	-4.72635202
9.75000000	4.84455933	-1.84559258	-0.77772078	0.60102028	1.04559875	-0.02160049	17.93050778	-2.90617367	-6.95037445	-24.62027008	12.36749703	-0.00000082	0.00000000	5.44492875	1.38076320	0.20135362	-57.96695181	-18.91603449	0.00000249	0.00000000	-19.54310531	-0.47001089	-4.72635202
9.76000000	4.84455933	-1.84559258	-0.77772078	0.60102028	1.04559875	-0.02160049	17.04948553	-2.90617367	-6.95037445	-24.23477787	12.83446002	-0.00000082	0.00000000	7.19414169	1.38076320	0.20135362	-60.64950783	-20.16525890	0.00000249	0.00000000	-19.54310531	-0.47001089	-4.72635202
9.77000000	4.84455933	-1.84559258	-0.77772078	0.60102028	1.04559875	-0.02160049	16.16712673	-2.90617367	-6.95037445	-23.81299517	13.22452322	-0.00000082	0.00000000	8.93245019	1.38076320	0.20135362	-63.12970105	-20.59844311	0.00000249	0.00000000	-19.54310531	-0.47001089	-4.72635202
9.78000000	4.84455933	-1.84559258	-0.77772078	0.60102028	1.04559875	-0.02160049	15.28674289	-2.90617367	-6.95037445	-23.37457614	13.54288964	-0.00000082	0.00000000	10.63109059	1.38076320	0.20135362	-65.36420867	-20.25867836	0.00000249	0.00000000	-19.54310531	-0.47001089	-4.72635202
9.79000000	4.84455933	-1.84559258	-0.77772078	0.60102028	1.04559875	-0.02160049	14.41144060	-2.90617367	-6.95037445	-22.93553344	13.80078372	-0.00000082	0.00000000	12.26807010	1.38076320	0.20135362	-67.31728648	-19.23776698	0.00000249	0.00000000	-19.54310531	-0.47001089	-4.72635202
9.80000000	4.84455933	-1.84559258	-0.77772078	0.60102028	1.04559875	-0.02160049	13.54444059	-2.90617367	-6.95037445	-22.50781289	14.01314328	-0.00000082	0.00000000	13.82925388	1.38076320	0.20135362	-68.96277774	-17.66406420	0.00000249	0.00000000	-19.54310531	-0.47001089	-4.72635202
9.81000000	4.84455933	-1.84559258	-0.77772078	0.60102028	1.04559875	-0.02160049	12.68919413	-2.90617367	-6.95037445	-22.09914260	14.19627576	-0.00000082	0.00000000	15.30848155	1.38076320	0.20135362	-70.28513208	-15.68762913	0.00000249	0.00000000	-19.54310531	-0.47001089	-4.72635202
9.82000000	4.84455933	-1.84559258	-0.77772078	0.60102028	1.04559875	-0.02160049	11.84926819	-2.90617367	-6.95037445	-21.71313012	14.36574772	-0.00000082	0.00000000	16.70673780	1.38076320	0.20135362	-71.27926199	-13.46473539	0.00000249	0.00000000	-19.54310531	-0.47001089	-4.72635202
9.83000000	4.84455933	-1.84559258	-0.77772078	0.60102028	1.04559875	-0.02160049	11.02802412	-2.90617367	-6.95037445	-21.34958339	14.53471338	-0.00000082	0.00000000	18.03053074	1.38076320	0.20135362	-71.94925250	-11.14365049	0.00000249	0.00000000	-19.54310531	-0.47001089	-4.72635202
9.84000000	4.84455933	-1.84559258	-0.77772078	0.60102028	1.04559875	-0.02160049	10.22816288	-2.90617367	-6.95037445	-21.00503336	14.71280966	-0.00000082	0.00000000	19.28972649	1.38076320	0.20135362	-72.30611562	-8.85318766	0.00000249	0.00000000	-19.54310531	-0.47001089	-4.72635202
9.85000000	4.84455933	-1.84559258	-0.77772078	0.60102028	1.04559875	-0.02160049	9.45124382	-2.90617367	-6.95037445	-20.67343346	14.90566370	-0.00000082	0.00000000	20.49514030	1.38076320	0.20135362	-72.36491320	-6.69498094	0.00000249	0.00000000	-19.54310531	-0.47001089	-4.72635202
9.86000000	4.84455933	-1.84559258	-0.77772078	0.60102028	1.04559875	-0.02160049	8.69729473	-2.90617367	-6.95037445	-20.34700213	15.11498184	-0.00000082	0.00000000	21.65619173	1.38076320	0.20135362	-72.14164297	-4.73985117	0.00000249	0.00000000	-19.54310531	-0.47001089	-4.72635202
9.87000000	4.84455933	-1.84559258	-0.77772078	0.60102028	1.04559875	-0.02160049	7.96461467	-2.90617367	-6.95037445	-20.01715940	15.33912485	-0.00000082	0.00000000	22.77890292	1.38076320	0.20135362	-71.65029612	-3.02809720	0.00000249	0.00000000	-19.54310531	-0.47001089	-4.72635202
9.88000000	4.84455933	-1.84559258	-0.77772078	0.60102028	1.04559875	-0.02160049	7.24983001	-2.90617367	-6.95037445	-19.67549054	15.57402839	-0.00000082	0.00000000	23.86446350	1.38076320	0.20135362	-70.90046041	-1.57311034	0.00000249	0.00000000	-19.54310531	-0.47001089	-4.72635202
9.89000000	4.84455933	-1.84559258	-0.77772078	0.60102028	1.04559875	-0.02160049	6.54820769	-2.90617367	-6.95037445	-19.31465390	15.81430171	-0.00000082	0.00000000	24.90851198	1.38076320	0.20135362	-69.89577296	-0.36738940	0.00000249	0.00000000	-19.54310531	-0.47001089	-4.72635202
9.90000000	4.84455933	-1.84559258	-0.77772078	0.60102028	1.04559875	-0.02160049	5.85417270	-2.90617367	-6.95037445	-18.92914362	16.05433481	-0.00000082	0.00000000	25.90120005	1.38076320	0.20135362	-68.63343186	0.61015949	0.00000249	0.00000000	-19.54310531	-0.47001089	-4.72635202
9.91000000	4.84455933	-1.84559258	-0.77772078	0.60102028	1.04559875	-0.02160049	5.16193413	-2.90617367	-6.95037445	-18.51582670	16.28925981	-0.00000082	0.00000000	26.82801845	1.38076320	0.20135362	-67.10486082	1.38680489	0.00000249	0.00000000	-19.54310531	-0.47001089	-4.72635202
9.92000000	4.84455933	-1.84559258	-0.77772078	0.60102028	1.04559875	-0.02160049	4.46610739	-2.90617367	-6.95037445	-18.07419959	16.51564426	-0.00000082	0.00000000	27.67127934	1.38076320	0.20135362	-65.29749524	1.98951929	0.00000249	0.00000000	-19.54310531	-0.47001089	-4.72635202
9.93000000	4.84455933	-1.84559258	-0.77772078	0.60102028	1.04559875	-0.02160049	3.76223212	-2.90617367	-6.95037445	-17.60634996	16.73183745	-0.00000082	0.00000000	28.41207731	1.38076320	0.20135362	-63.19753006	2.44027260	0.00000249	0.00000000	-19.54310531	-0.47001089	-4.72635202
9.94000000	4.84455933	-1.84559258	-0.77772078	0.60102028	1.04559875	-0.02160049	3.04712028	-2.90617367	-6.95037445	-17.11665518	16.93794303	-0.00000082	0.00000000	29.03249720	1.38076320	0.20135362	-60.79335171	2.75354793	0.00000249	0.00000000	-19.54310531	-0.47001089	-4.72635202
